<svg xmlns="http://www.w3.org/2000/svg" viewBox="0 0 1200 320" role="img" aria-labelledby="title desc">
  <title id="title">Socratic Council experience map</title>
  <desc id="desc">A flowchart showing the topic entering the council, then branching to tools, transcript, analytics, and exports.</desc>
  <defs>
    <linearGradient id="bg" x1="0" y1="0" x2="1" y2="1">
      <stop offset="0%" stop-color="#07111f"/>
      <stop offset="100%" stop-color="#0f172a"/>
    </linearGradient>
    <marker id="arrow" markerWidth="12" markerHeight="12" refX="10" refY="6" orient="auto">
      <path d="M0 0L12 6L0 12z" fill="#7dd3fc"/>
    </marker>
    <style>
      text { font-family: ui-sans-serif, system-ui, -apple-system, BlinkMacSystemFont, "Segoe UI", sans-serif; }
      .title { font-size: 24px; font-weight: 700; fill: #f8fafc; }
      .subtitle { font-size: 14px; fill: #94a3b8; }
      .node { fill: #0f172a; stroke: #334155; stroke-width: 2; rx: 22; }
      .node-strong { fill: #10253c; stroke: #38bdf8; stroke-width: 2.5; rx: 22; }
      .edge { stroke: #7dd3fc; stroke-width: 3; stroke-linecap: round; stroke-linejoin: round; fill: none; marker-end: url(#arrow); }
      .label { font-size: 19px; font-weight: 700; fill: #e2e8f0; text-anchor: middle; }
      .meta { font-size: 13px; fill: #94a3b8; text-anchor: middle; }
    </style>
  </defs>

  <rect width="1200" height="320" rx="28" fill="url(#bg)"/>
  <text x="56" y="44" class="title">Experience Map</text>
  <text x="56" y="68" class="subtitle">Topic in, multi-agent debate in the center, tools and outputs around it.</text>

  <rect x="72" y="124" width="210" height="72" class="node"/>
  <text x="177" y="152" class="label">Topic</text>
  <text x="177" y="174" class="meta">prompt plus optional files</text>

  <rect x="360" y="108" width="260" height="104" class="node-strong"/>
  <text x="490" y="145" class="label">Seven-agent council</text>
  <text x="490" y="167" class="meta">turn-taking debate</text>
  <text x="490" y="186" class="meta">moderation and evidence</text>

  <rect x="720" y="48" width="180" height="74" class="node"/>
  <text x="810" y="76" class="label">Oracle tools</text>
  <text x="810" y="98" class="meta">file search / web search</text>

  <rect x="930" y="48" width="196" height="74" class="node"/>
  <text x="1028" y="76" class="label">Transcript</text>
  <text x="1028" y="98" class="meta">quotes / reactions / search</text>

  <rect x="720" y="188" width="180" height="74" class="node"/>
  <text x="810" y="216" class="label">Analytics</text>
  <text x="810" y="238" class="meta">conflict, latency, tokens, cost</text>

  <rect x="930" y="188" width="196" height="74" class="node"/>
  <text x="1028" y="216" class="label">Exports</text>
  <text x="1028" y="238" class="meta">Markdown / JSON / PDF / DOCX / PPTX</text>

  <path d="M282 160H360" class="edge"/>
  <path d="M620 160H676V85H720" class="edge"/>
  <path d="M620 160H676V85H930" class="edge"/>
  <path d="M620 160H676V225H720" class="edge"/>
  <path d="M620 160H676V225H930" class="edge"/>
</svg>
